<svg width="512" height="512" viewBox="0 0 512 512" xmlns="http://www.w3.org/2000/svg">
  <defs>
    <linearGradient id="bg" x1="0" y1="0" x2="512" y2="512" gradientUnits="userSpaceOnUse">
      <stop offset="0" stop-color="#1a2a44"/>
      <stop offset="1" stop-color="#070a14"/>
    </linearGradient>
    <radialGradient id="aura" cx="256" cy="256" r="200" gradientUnits="userSpaceOnUse">
      <stop offset="0" stop-color="#4a8c5c" stop-opacity="0.4"/>
      <stop offset="1" stop-color="#4a8c5c" stop-opacity="0"/>
    </radialGradient>
    <filter id="soft" x="-20%" y="-20%" width="140%" height="140%">
      <feGaussianBlur stdDeviation="10" result="blur"/>
      <feMerge>
        <feMergeNode in="blur"/>
        <feMergeNode in="SourceGraphic"/>
      </feMerge>
    </filter>
  </defs>
  <rect x="0" y="0" width="512" height="512" rx="128" fill="url(#bg)"/>
  <rect x="0" y="0" width="512" height="512" rx="128" fill="none" stroke="#ffffff" stroke-opacity="0.05" stroke-width="2"/>
  <circle cx="256" cy="256" r="200" fill="url(#aura)"/>
  <g transform="translate(256, 256)" filter="url(#soft)">
    <circle r="100" fill="#1a3a25" stroke="#4a8c5c" stroke-width="3" fill-opacity="0.85"/>
    <g stroke="#4a8c5c" stroke-width="1.5" stroke-opacity="0.4">
      <path d="M0,-100 L86.6,-50 L86.6,50 L0,100 L-86.6,50 L-86.6,-50 Z" fill="none"/>
      <path d="M0,-100 L0,100 M-86.6,-50 L86.6,50 M-86.6,50 L86.6,-50" fill="none"/>
      <circle r="50" fill="none" stroke-dasharray="5 10"/>
    </g>
    <g fill="#d6eddc">
      <circle cx="-32" cy="-12" r="11"/>
      <circle cx="32" cy="-12" r="11"/>
    </g>
    <path d="M-28,38 Q0,55 28,38" fill="none" stroke="#d6eddc" stroke-width="9" stroke-linecap="round"/>
    <g fill="#dff9ea">
      <circle cx="0" cy="-100" r="6"/>
      <circle cx="86.6" cy="-50" r="6"/>
      <circle cx="86.6" cy="50" r="6"/>
      <circle cx="0" cy="100" r="6"/>
      <circle cx="-86.6" cy="50" r="6"/>
      <circle cx="-86.6" cy="-50" r="6"/>
      <circle cx="50" cy="0" r="4" fill-opacity="0.7"/>
      <circle cx="-50" cy="0" r="4" fill-opacity="0.7"/>
      <circle cx="0" cy="0" r="4" fill-opacity="0.4"/>
    </g>
  </g>
  <path d="M128,0 C60,0 0,60 0,128 L0,80 C0,60 60,0 128,0 Z" fill="#ffffff" fill-opacity="0.04"/>
</svg>
